<?xml version="1.0" encoding="iso-8859-1"?>
<!-- Generator: Adobe Illustrator 16.0.0, SVG Export Plug-In . SVG Version: 6.00 Build 0)  -->
<!DOCTYPE svg PUBLIC "-//W3C//DTD SVG 1.1//EN" "http://www.w3.org/Graphics/SVG/1.1/DTD/svg11.dtd">
<svg version="1.1" xmlns="http://www.w3.org/2000/svg" xmlns:xlink="http://www.w3.org/1999/xlink" x="0px" y="0px" width="512px"
	 height="512px" viewBox="0 0 512 512" style="enable-background:new 0 0 512 512;" xml:space="preserve">
<g id="_x33_52_x2C__Global_x2C__globe_x2C__internet_x2C__travel_x2C__arrow">
	<g>
		<path d="M255.997,426.001c93.738,0,170-76.262,170-170s-76.262-170-170-170s-170,76.262-170,170
			c0,31.171,8.441,60.404,23.146,85.549c0.498,1.958,1.57,3.681,3.031,4.985C142.313,394.244,195.513,426.001,255.997,426.001z
			 M126.067,181.112h55.981c-5.104,20.33-8.177,42.532-8.89,64.889h-66.82C107.894,222.491,114.881,200.444,126.067,181.112z
			 M405.655,246.001h-66.819c-0.713-22.356-3.785-44.559-8.89-64.889h55.98C397.113,200.444,404.101,222.491,405.655,246.001z
			 M386.949,329.08h-56.646c4.887-19.775,7.834-41.328,8.531-63.079h66.82C404.148,288.781,397.535,310.186,386.949,329.08z
			 M245.997,349.08v50.372c-17.71-7.654-30.453-32.333-37.268-50.372H245.997z M202.322,329.08
			c-5.236-19.461-8.411-41.11-9.156-63.079h52.831v63.079H202.322z M265.997,399.452V349.08h37.267
			C296.446,367.12,283.711,391.794,265.997,399.452z M265.997,329.08v-63.079h52.831c-0.745,21.969-3.92,43.618-9.156,63.079
			H265.997z M318.828,246.001h-52.831v-64.889h43.291C314.755,201.119,318.067,223.423,318.828,246.001z M265.997,161.112v-49.966
			c17.396,7.687,29.998,32.121,36.803,49.966H265.997z M245.997,111.146v49.966h-36.803
			C215.998,143.271,228.599,118.834,245.997,111.146z M245.997,181.112v64.889h-52.832c0.761-22.578,4.073-44.882,9.541-64.889
			H245.997z M173.159,266.001c0.697,21.751,3.645,43.304,8.531,63.079h-56.645c-10.586-18.895-17.2-40.299-18.707-63.079H173.159z
			 M138.456,349.08h49.05c6.107,18.058,15.101,37.053,27.597,51.254C184.449,391.637,157.764,373.411,138.456,349.08z
			 M296.892,400.334c12.49-14.196,21.488-33.192,27.596-51.254h49.051C354.23,373.411,327.545,391.637,296.892,400.334z
			 M372.08,161.112h-48.022c-5.84-17.09-14.292-35.128-25.882-49.065C327.527,120.661,353.173,138.023,372.08,161.112z
			 M213.818,112.047c-11.586,13.933-20.046,31.979-25.881,49.065h-48.023C158.821,138.023,184.466,120.662,213.818,112.047z"/>
		<path d="M100.434,373.28c-5.523,0-10,4.478-10,10v1.951c-63.587-81.128-59.877-200.775,17.071-277.723
			c61.81-61.81,156.696-78.857,236.114-42.421c5.016,2.303,10.956,0.102,13.259-4.919c2.303-5.02,0.101-10.956-4.919-13.259
			C266.091,7.513,162.634,24.095,93.363,93.366C7.798,178.931,4.915,312.605,77.891,401.564h-5.742c-5.523,0-10,4.478-10,10
			s4.477,10,10,10c30.268-0.019,29.596,0.277,32.11-0.762c2.504-1.045,4.407-3,5.411-5.409c1.031-2.491,0.744-1.823,0.763-32.113
			C110.434,377.758,105.957,373.28,100.434,373.28z"/>
		<path d="M430.371,106.001h3.909c5.522,0,10-4.478,10-10c0-5.523-4.478-10-10-10h-28.283c-5.522,0-10,4.477-10,10v28.284
			c0,5.522,4.478,10,10,10s10-4.478,10-10v-4.304c69.433,81.406,67.476,205.529-11.509,284.512
			c-61.216,61.218-155.413,78.579-234.401,43.196c-5.039-2.257-10.956-0.003-13.214,5.038c-2.257,5.04-0.002,10.956,5.039,13.214
			c85.694,38.386,188.11,21.304,256.719-47.306C505.223,332.044,507.542,195.432,430.371,106.001z"/>
	</g>
</g>
<g id="Layer_1">
</g>
</svg>
