<?xml version="1.0" encoding="UTF-8"?><svg id="a" xmlns="http://www.w3.org/2000/svg" viewBox="0 0 260 191"><defs><style>.f{fill:#e64e4e;}.g{fill:#f2d382;}.h{fill:#99ca8c;}.i{fill:#55585e;}.j{fill:#4990e2;}</style></defs><g><path class="i" d="M204,89.6c-10.73-7.95-18.25-13.47-22.4-16.29v-13.3c0-10.48-8.52-19-19-19h-62.6c-10.48,0-19,8.52-19,19v10.95c-4.79,3.31-13.06,9.43-25.21,18.66-4.31,3.34-6.79,8.33-6.79,13.69v69.6c0,9.48,7.72,17.2,17.2,17.2h127.5c9.48,0,17.2-7.72,17.2-17.2V103.4c0-5.48-2.58-10.64-6.9-13.8Zm-1.19,1.61c.94,.69,1.79,1.49,2.53,2.37l-23.74,18.71v-36.55c4.3,2.99,11.41,8.22,21.21,15.48ZM100,43h62.6c9.37,0,17,7.63,17,17v53.86l-25.85,20.37-.06-.06-.4,.42-3.71,2.92c-10.31,8.19-24.89,8.35-35.48,.39l-31.34-23.7h.24v-42.19c.08-.06,.18-.12,.26-.18l-.26-.38v-11.44c0-9.37,7.63-17,17-17Zm-43,48.2c11.21-8.52,19.1-14.37,24-17.81v39.48l-26.07-19.71c.63-.7,1.31-1.36,2.07-1.96Zm-6,81.7V103.3c0-3.11,.96-6.07,2.69-8.58l53.56,40.5-51.69,48.51c-2.81-2.76-4.56-6.6-4.56-10.84Zm15.2,15.2c-3.42,0-6.57-1.15-9.11-3.06l51.77-48.59,4.03,3.05c5.56,4.18,12.15,6.27,18.73,6.27s13.59-2.23,19.19-6.68l2.82-2.22,50.36,47.18c-2.71,2.51-6.32,4.05-10.3,4.05H66.2Zm142.7-15.2c0,3.69-1.32,7.07-3.51,9.7l-50.16-46.99,51.29-40.42c1.53,2.41,2.38,5.25,2.38,8.2v69.5Z"/><path class="i" d="M113.5,113c2.48,0,4.5-2.02,4.5-4.5,0-1.95-1.26-3.6-3-4.22v-7.03h15.5v6.87c-2,.46-3.5,2.24-3.5,4.38,0,2.48,2.02,4.5,4.5,4.5s4.5-2.02,4.5-4.5c0-2.14-1.5-3.92-3.5-4.38v-6.87h16v6.87c-2,.46-3.5,2.24-3.5,4.38,0,2.48,2.02,4.5,4.5,4.5s4.5-2.02,4.5-4.5c0-2.14-1.5-3.92-3.5-4.38v-8.62h-18v-7.55c8.63-.52,15.5-7.69,15.5-16.45s-7.4-16.5-16.5-16.5-16.5,7.4-16.5,16.5,6.87,15.93,15.5,16.45v7.55h-17.5v8.55c-2.24,.25-4,2.14-4,4.45,0,2.48,2.02,4.5,4.5,4.5Zm20.5-4.5c0,1.38-1.12,2.5-2.5,2.5s-2.5-1.12-2.5-2.5,1.12-2.5,2.5-2.5,2.5,1.12,2.5,2.5Zm18,0c0,1.38-1.12,2.5-2.5,2.5s-2.5-1.12-2.5-2.5,1.12-2.5,2.5-2.5,2.5,1.12,2.5,2.5Zm-25.71-28.44c3.45-1.39,6.9-1.38,10.41,.04-1.27,3.7-3.27,5.9-5.2,5.9s-3.95-2.22-5.21-5.94Zm.38,5.1c-1.71-.61-3.27-1.52-4.62-2.68,.81-.6,1.62-1.11,2.43-1.56,.59,1.67,1.33,3.1,2.19,4.24Zm4.83-28.16c1.93,0,3.93,2.2,5.2,5.9-3.51,1.42-6.96,1.43-10.41,.04,1.26-3.72,3.28-5.94,5.21-5.94Zm-7.02,5.08c-.81-.44-1.62-.96-2.43-1.56,1.35-1.16,2.91-2.07,4.62-2.68-.86,1.13-1.6,2.57-2.19,4.24Zm11.84-4.24c1.71,.61,3.27,1.52,4.62,2.68-.82,.58-1.63,1.09-2.44,1.53-.59-1.65-1.32-3.08-2.18-4.21Zm-4.9,8.14c1.94,0,3.88-.39,5.83-1.15,.43,1.81,.7,3.89,.74,6.17h-12.98c.03-2.26,.3-4.32,.73-6.13,1.89,.73,3.78,1.11,5.68,1.11Zm6.54,7.02c-.09,1.89-.34,3.62-.71,5.17-3.86-1.51-7.71-1.52-11.51-.04-.37-1.54-.62-3.25-.7-5.13h12.93Zm.54,7.95c.81,.44,1.62,.95,2.44,1.53-1.35,1.16-2.91,2.07-4.62,2.68,.85-1.13,1.59-2.55,2.18-4.21Zm3.88,.1c-1.1-.8-2.2-1.48-3.29-2.04,.47-1.82,.77-3.85,.87-6.01h5.96c-.32,3.07-1.61,5.85-3.54,8.05Zm3.59-10.05h-5.99c-.04-2.53-.35-4.9-.9-7.01,1.1-.56,2.2-1.24,3.29-2.04,2.14,2.44,3.47,5.59,3.59,9.05Zm-25.36-9.05c1.09,.82,2.19,1.51,3.29,2.08-.54,2.09-.85,4.45-.89,6.97h-5.99c.12-3.46,1.45-6.61,3.59-9.05Zm-3.54,11.05h5.96c.1,2.15,.4,4.15,.86,5.97-1.1,.57-2.19,1.26-3.29,2.08-1.93-2.2-3.22-4.98-3.54-8.05Zm-3.58,33c1.38,0,2.5,1.12,2.5,2.5s-1.12,2.5-2.5,2.5-2.5-1.12-2.5-2.5,1.12-2.5,2.5-2.5Z"/><path class="i" d="M127.58,3c-.8,0-1.5,.7-1.5,1.5s.7,1.5,1.5,1.5,1.5-.7,1.5-1.5-.7-1.5-1.5-1.5Zm0,2.3c-.5,0-.8-.3-.8-.8s.3-.8,.8-.8,.8,.3,.8,.8-.3,.8-.8,.8Z"/><path class="i" d="M132.29,18.2h-7.92c-.25,0-.4,.15-.4,.4,0,.12,0,.5,.4,.5h7.92c.23,.8,.87,1.3,1.68,1.3s1.53-.58,1.68-1.3h7.92c.25,0,.4-.15,.4-.4s-.15-.4-.4-.4h-7.92c-.13-.67-.61-1.16-1.29-1.28v-2.52h8c.85,0,1.6-.75,1.6-1.6v-4c0-.48-.17-.88-.52-1.18,.49-.29,.72-.68,.72-1.22V2.5c0-.85-.75-1.6-1.6-1.6h-17c-.85,0-1.6,.75-1.6,1.6v3.9c0,.56,.17,.97,.53,1.29-.33,.23-.53,.68-.53,1.21v3.9c0,.85,.75,1.6,1.6,1.6h8v2.52c-.67,.13-1.16,.61-1.29,1.28Zm2.69,.5c0,.55-.35,.9-.9,.9s-.9-.35-.9-.9,.35-.9,.9-.9,.9,.35,.9,.9Zm8.3-12.3c0,.44-.36,.8-.8,.8h-16.9c-.44,0-.8-.36-.8-.8V2.5c0-.44,.36-.8,.8-.8h16.9c.44,0,.8,.36,.8,.8v3.9Zm-17.7,1.7h16.9c.44,0,.8,.36,.8,.8v3.9c0,.44-.36,.8-.8,.8h-16.9c-.44,0-.8-.36-.8-.8v-3.88c.09-.45,.45-.82,.8-.82Z"/><path class="i" d="M127.58,12.3c.8,0,1.5-.7,1.5-1.5s-.7-1.5-1.5-1.5-1.5,.7-1.5,1.5c0,.9,.7,1.5,1.5,1.5Zm0-2.3c.5,0,.8,.4,.8,.8,0,.5-.4,.8-.8,.8s-.8-.4-.8-.8,.3-.8,.8-.8Z"/><path class="i" d="M259.2,88.6v-1.8c0-.64-.49-1.3-1.3-1.3-3.04,0-5.35-.85-7.45-2.75-.48-.48-1.34-.47-1.8,0-2.01,1.91-4.3,2.76-7.46,2.76-.64,0-1.3,.49-1.3,1.3v1.8c-.1,5.6-.25,13.27,9.14,16.47l.64,.03,.08-.03c9.69-3.3,9.54-11.23,9.44-16.48Zm-9.69,15.5h-.23c-8.61-2.98-8.49-9.91-8.38-15.48v-1.82c0-.24,.2-.3,.3-.3,3.43,0,5.94-.94,8.15-3.05,.14-.14,.24-.15,.41,.02,2.28,2.07,4.87,3.03,8.14,3.03,.24,0,.3,.2,.3,.3v1.81c.1,5.24,.23,12.41-8.68,15.49Z"/><path class="i" d="M253,91.1l-4.1,4.1-1.8-1.8c-.3-.3-.9-.3-1.2,0s-.3,.9,0,1.2l2.4,2.4c.2,.2,.4,.2,.6,.2s.4-.1,.6-.2l4.7-4.7c.3-.3,.3-.9,0-1.2s-.9-.3-1.2,0Z"/><path class="i" d="M232.1,50.1l-6.6,6.5-2.5-2.5c-.2-.2-.6-.2-.8,0-.2,.2-.2,.6,0,.8l2.9,2.9c.2,.3,.5,.3,.8,0l7-6.9c.2-.2,.2-.6,0-.8-.2-.2-.6-.2-.8,0Z"/><path class="i" d="M24.8,80.71v2.57l2.2,1.29,2.2-1.29v-2.57l-2.2-1.29-2.2,1.29Zm3.4,2l-1.2,.71-1.2-.71v-1.43l1.2-.71,1.2,.71v1.43Z"/><path class="i" d="M4.8,179.71v2.57l2.2,1.29,2.2-1.29v-2.57l-2.2-1.29-2.2,1.29Zm3.4,2l-1.2,.71-1.2-.71v-1.43l1.2-.71,1.2,.71v1.43Z"/><path class="i" d="M13.36,106.66c-1.07-.48-2.08-.58-2.9-.31-1.12,.33-1.9,.89-2.49,1.78-.44,.87-.51,1.91-.21,2.9,.23,1.04,.92,1.92,1.86,2.39,.5,.37,1.34,.43,1.79,.43,1.42,0,2.63-.68,3.33-1.88,.46-.82,.56-1.8,.31-2.91-.22-.97-.85-1.89-1.69-2.4Zm0,4.57c-.27,.55-.83,.83-1.41,1.12-.58,.09-1.23-.01-1.76-.27-.44-.35-.74-.81-.96-1.44-.27-.62-.2-1.27,.2-1.77,.24-.48,.64-.8,1.29-1.02h.68c.5,0,.77,.11,1.02,.27l.04,.02c.51,.17,.9,.6,1.1,1.2,.18,.53,.11,1.18-.19,1.89Z"/><path class="i" d="M18.99,106.76l-1.04-1.79,.09-.92c.32-.56,.4-1.19,.2-1.68-.11-.53-.52-1.07-1.06-1.4l-1.19-.79c-.5-.38-1.23-.3-1.62-.23-.52,.11-1.03,.5-1.93,1.48l-2.57-.48c-.52-.52-1.01-.82-1.42-.9-.53-.21-1.19-.12-1.63,.21l-1.4,.8c-.5,.3-.85,.81-.96,1.37-.22,.56-.1,1.2,.47,2.35l-1.41,2.16h-.52c-.6,0-1.05,.19-1.51,.64-.43,.43-.64,.97-.64,1.61v1.7c0,.59,.25,1.21,.64,1.61,.44,.44,1.01,.64,2.41,.83l1.03,2.15-.26,.43c-.34,.57-.42,1.21-.22,1.71,.11,.53,.52,1.07,1.07,1.4l1.4,.8c.35,.21,.74,.28,1.1,.28,.22,0,.43-.03,.61-.06,.54-.11,.93-.5,1.83-1.48l2.55,.47c.4,.65,1.08,1.02,1.89,1.02,.31,0,.57-.11,.8-.21,.09-.04,.17-.07,.28-.11l1.42-.81c.55-.41,.87-.84,.95-1.27,.18-.55,.15-1.17-.1-1.78l-.19-.84,1.32-1.98h.52c.6,0,1.05-.19,1.51-.64,.43-.43,.64-.97,.64-1.61v-1.5c0-.72-.27-1.33-.76-1.72-.45-.36-1.04-.71-2.3-.83Zm-2.62,9.31c.18,.35,.18,.61,.18,.81-.08,.25-.17,.43-.34,.6l-1.38,.79-.03,.02c-.05,.05-.29,.05-.43,.06-.18-.21-.33-.38-.45-.53-.33-.39-.5-.59-.73-.75-.3-.2-.72-.33-1.08-.33h-1.8c-.51,0-1.07,.31-1.71,.94l-.04,.06c-.08,.23-.23,.42-.42,.51-.16,.08-.41,.08-.57,0l-1.39-.6c-.15-.07-.23-.23-.32-.4v-.71l.37-.46c.33-.44,.34-1.21,0-1.87l-1.1-1.8c-.35-.59-1.03-.97-1.73-.97-.38,0-.67-.1-.82-.17-.25-.16-.33-.41-.33-.58v-1.5c0-.18,.1-.43,.16-.49,.19-.18,.35-.26,.59-.26h.6c.67,0,1.22-.45,1.73-.97l1.1-1.8c.33-.55,.33-1.29,0-1.94l-.02-.04-.5-.3c-.09-.17-.15-.32-.08-.53,.09-.19,.18-.37,.36-.55l1.38-.79c.16-.08,.31-.08,.47,0,.18,.09,.35,.18,.43,.33,.22,.45,.45,.66,.75,.86,.3,.2,.72,.33,1.08,.33l2.2-.1c.58,0,1.32-.45,1.62-.86l.02-.04c.08-.23,.23-.42,.43-.51,.16-.08,.41-.08,.56,0l1.41,.8c.15,.08,.24,.25,.33,.43,.07,.14,.09,.28,0,.56l-.29,.49c-.33,.44-.34,1.21-.01,1.86l1,1.8c.35,.59,1.03,.97,1.73,.97,.52,0,.81,.07,.99,.26l.04,.03c.05,.03,.22,.11,.22,.47v1.4c0,.24-.07,.41-.26,.59-.18,.18-.35,.25-.59,.25h-.5c-.51,0-1.08,.32-1.73,.97l-1.11,1.81c-.32,.65-.32,1.41,0,1.83Z"/><path class="i" d="M247.1,137.5c0-.33-.27-.6-.6-.6h-7.5c-.33,0-.6,.27-.6,.6s.27,.6,.6,.6h7.5c.33,0,.6-.27,.6-.6Z"/><path class="i" d="M249.5,139.9h-7.5c-.33,0-.6,.27-.6,.6s.27,.6,.6,.6h7.5c.33,0,.6-.27,.6-.6s-.27-.6-.6-.6Z"/><path class="i" d="M42.1,42.5c0-.33-.27-.6-.6-.6h-7.5c-.33,0-.6,.27-.6,.6s.27,.6,.6,.6h7.5c.33,0,.6-.27,.6-.6Z"/><path class="i" d="M44.5,44.9h-7.5c-.33,0-.6,.27-.6,.6s.27,.6,.6,.6h7.5c.33,0,.6-.27,.6-.6s-.27-.6-.6-.6Z"/></g><g><path id="b" class="h" d="M241.1,166.7l7.9-1.3c1.1-.2,2.1,.6,2.3,1.7l1.3,7.9c.2,1.1-.6,2.1-1.7,2.3l-7.9,1.3c-1.1,.2-2.1-.6-2.3-1.7l-1.3-7.9c-.1-1.1,.6-2.1,1.7-2.3Z"/><path id="c" class="f" d="M15.4,147.5l8.6-2.5c1.1-.3,2.2,.3,2.5,1.4l2.5,8.6c.3,1.1-.3,2.2-1.4,2.5l-8.6,2.5c-1.1,.3-2.2-.3-2.5-1.4l-2.5-8.6c-.3-1.1,.3-2.2,1.4-2.5Z"/><path id="d" class="j" d="M82.6,12.1l4.7-1.7c1-.4,2.2,.2,2.6,1.2l1.7,4.7c.4,1-.2,2.2-1.2,2.6l-4.7,1.7c-1,.4-2.2-.2-2.6-1.2l-1.7-4.7c-.4-1,.2-2.2,1.2-2.6Z"/><path id="e" class="g" d="M190.2,19.1l6.5,2.5c1,.4,1.5,1.6,1.2,2.6l-2.5,6.5c-.4,1-1.6,1.5-2.6,1.2l-6.5-2.5c-1-.4-1.5-1.6-1.2-2.6l2.5-6.5c.4-1.1,1.6-1.6,2.6-1.2Z"/></g></svg>