<svg xmlns="http://www.w3.org/2000/svg" version="1.1" xmlns:xlink="http://www.w3.org/1999/xlink" xmlns:svgjs="http://svgjs.com/svgjs" width="854" height="178" preserveAspectRatio="none" viewBox="0 0 854 178"><g mask="url(&quot;#SvgjsMask4974&quot;)" fill="none"><rect width="854" height="178" x="0" y="0" fill="#0e2a47"></rect><rect width="114" height="114" clip-path="url(&quot;#SvgjsClipPath4975&quot;)" x="-47.19" y="55.62" fill="url(#SvgjsPattern4976)" transform="rotate(318.59, 9.81, 112.62)"></rect><rect width="84" height="84" clip-path="url(&quot;#SvgjsClipPath4977&quot;)" x="78.79" y="108.18" fill="url(#SvgjsPattern4978)" transform="rotate(301.33, 120.79, 150.18)"></rect><circle r="23.034760875132726" cx="845.98" cy="142.48" fill="#e73635"></circle><circle r="14.833333333333334" cx="27.11" cy="128.92" fill="#e73635"></circle><path d="M283.69 60.25a5.6 5.6 0 1 0 5.15-9.94 5.6 5.6 0 1 0-5.15 9.94zM291.04 46.05a5.6 5.6 0 1 0 5.15-9.95 5.6 5.6 0 1 0-5.15 9.95zM298.4 31.84a5.6 5.6 0 1 0 5.15-9.95 5.6 5.6 0 1 0-5.15 9.95zM305.75 17.63a5.6 5.6 0 1 0 5.15-9.95 5.6 5.6 0 1 0-5.15 9.95zM283.19 96.03a5.6 5.6 0 1 0 5.14-9.95 5.6 5.6 0 1 0-5.14 9.95zM290.54 81.82a5.6 5.6 0 1 0 5.15-9.95 5.6 5.6 0 1 0-5.15 9.95zM297.9 67.61a5.6 5.6 0 1 0 5.15-9.95 5.6 5.6 0 1 0-5.15 9.95zM305.25 53.4a5.6 5.6 0 1 0 5.15-9.94 5.6 5.6 0 1 0-5.15 9.94zM282.68 131.8a5.6 5.6 0 1 0 5.15-9.94 5.6 5.6 0 1 0-5.15 9.94zM290.04 117.59a5.6 5.6 0 1 0 5.15-9.94 5.6 5.6 0 1 0-5.15 9.94zM297.39 103.38a5.6 5.6 0 1 0 5.15-9.94 5.6 5.6 0 1 0-5.15 9.94zM304.75 89.17a5.6 5.6 0 1 0 5.15-9.94 5.6 5.6 0 1 0-5.15 9.94z" stroke="#e73635" stroke-width="2.81" stroke-dasharray="3, 2"></path><rect width="60.8" height="60.8" clip-path="url(&quot;#SvgjsClipPath4979&quot;)" x="436.1" y="109.11" fill="url(#SvgjsPattern4980)" transform="rotate(137.75, 466.5, 139.51)"></rect><rect width="85.39999999999999" height="85.39999999999999" clip-path="url(&quot;#SvgjsClipPath4981&quot;)" x="353.31" y="98.97" fill="url(#SvgjsPattern4982)" transform="rotate(86.44, 396.01, 141.67)"></rect><path d="M97.49 87.33 L107.69999999999999 77.94L110.62881175592393 90.66881175592393z" fill="#037b0b"></path><path d="M108.72 144.16L121.06 140.73 127.12 152.01 139.46 148.58 145.51 159.86 157.85 156.43 163.91 167.71" stroke="#e73635" stroke-width="1" stroke-dasharray="4, 4"></path><path d="M360.98 94.55a5.6 5.6 0 1 0-0.48 11.19 5.6 5.6 0 1 0 0.48-11.19zM360.29 110.53a5.6 5.6 0 1 0-0.49 11.19 5.6 5.6 0 1 0 0.49-11.19zM359.59 126.52a5.6 5.6 0 1 0-0.48 11.19 5.6 5.6 0 1 0 0.48-11.19zM358.9 142.5a5.6 5.6 0 1 0-0.49 11.19 5.6 5.6 0 1 0 0.49-11.19z" fill="#e73635"></path><path d="M618.97 108.47a5.6 5.6 0 1 0 2.65-10.88 5.6 5.6 0 1 0-2.65 10.88zM622.75 92.93a5.6 5.6 0 1 0 2.65-10.88 5.6 5.6 0 1 0-2.65 10.88zM626.54 77.38a5.6 5.6 0 1 0 2.65-10.88 5.6 5.6 0 1 0-2.65 10.88zM630.33 61.84a5.6 5.6 0 1 0 2.65-10.88 5.6 5.6 0 1 0-2.65 10.88z" fill="#037b0b"></path><path d="M68.97 117.13 L35.48 120.4L39.7740837936723 106.31408379367231z" fill="#d3b714"></path><rect width="128.2" height="128.2" clip-path="url(&quot;#SvgjsClipPath4983&quot;)" x="628.76" y="-46.03" fill="url(#SvgjsPattern4984)" transform="rotate(81.58, 692.86, 18.07)"></rect><rect width="103.44" height="103.44" clip-path="url(&quot;#SvgjsClipPath4985&quot;)" x="58.67" y="-49.36" fill="url(#SvgjsPattern4986)" transform="rotate(246.2, 110.39, 2.36)"></rect><rect width="72" height="72" clip-path="url(&quot;#SvgjsClipPath4987&quot;)" x="355.89" y="30.54" fill="url(#SvgjsPattern4988)" transform="rotate(170.2, 391.89, 66.54)"></rect><path d="M648.74 14.67a5.6 5.6 0 1 0 11.19-0.5 5.6 5.6 0 1 0-11.19 0.5zM664.72 13.95a5.6 5.6 0 1 0 11.19-0.5 5.6 5.6 0 1 0-11.19 0.5zM680.71 13.23a5.6 5.6 0 1 0 11.18-0.5 5.6 5.6 0 1 0-11.18 0.5zM696.69 12.51a5.6 5.6 0 1 0 11.19-0.5 5.6 5.6 0 1 0-11.19 0.5z" fill="#d3b714"></path><path d="M361.97 81.19L372.08 89.05 366.63 100.64 376.73 108.5 371.28 120.09 381.38 127.96 375.93 139.54" stroke="#d3b714" stroke-width="1" stroke-dasharray="3, 2"></path><rect width="88.08" height="88.08" clip-path="url(&quot;#SvgjsClipPath4989&quot;)" x="518.85" y="75.06" fill="url(#SvgjsPattern4990)" transform="rotate(35.68, 562.89, 119.1)"></rect><path d="M367.59 174.53L379.79 178.42 378.68 191.18 390.88 195.06 389.76 207.82 401.96 211.71 400.85 224.47M360.93 178.96L373.13 182.85 372.02 195.61 384.22 199.5 383.1 212.26 395.3 216.15 394.19 228.9M354.27 183.4L366.47 187.29 365.36 200.04 377.56 203.93 376.44 216.69 388.64 220.58 387.53 233.34" stroke="#d3b714" stroke-width="1.74"></path><circle r="15.370350247549794" cx="200.91" cy="157.38" stroke="#e73635" stroke-width="2.69" stroke-dasharray="2, 2"></circle><path d="M291.40999999999997 146.61 L246.82 145.14L296.8920189216024 118.0979810783976z" fill="#d3b714"></path><circle r="26.111335022920304" cx="653.23" cy="133.94" stroke="#e73635" stroke-width="2.59" stroke-dasharray="2, 2"></circle></g><defs><mask id="SvgjsMask4974"><rect width="854" height="178" fill="#ffffff"></rect></mask><pattern x="0" y="0" width="11.4" height="11.4" patternUnits="userSpaceOnUse" id="SvgjsPattern4976"><path d="M5.7 1L5.7 10.4M1 5.7L10.4 5.7" stroke="#d3b714" fill="none" stroke-width="2.8"></path></pattern><clipPath id="SvgjsClipPath4975"><circle r="28.5" cx="9.81" cy="112.62"></circle></clipPath><pattern x="0" y="0" width="84" height="6" patternUnits="userSpaceOnUse" id="SvgjsPattern4978"><rect width="84" height="3" x="0" y="0" fill="#037b0b"></rect><rect width="84" height="3" x="0" y="3" fill="rgba(0, 0, 0, 0)"></rect></pattern><clipPath id="SvgjsClipPath4977"><circle r="21" cx="120.79" cy="150.18"></circle></clipPath><pattern x="0" y="0" width="60.8" height="6.08" patternUnits="userSpaceOnUse" id="SvgjsPattern4980"><rect width="60.8" height="3.04" x="0" y="0" fill="#d3b714"></rect><rect width="60.8" height="3.04" x="0" y="3.04" fill="rgba(0, 0, 0, 0)"></rect></pattern><clipPath id="SvgjsClipPath4979"><circle r="15.2" cx="466.5" cy="139.51"></circle></clipPath><pattern x="0" y="0" width="8.54" height="8.54" patternUnits="userSpaceOnUse" id="SvgjsPattern4982"><path d="M0 8.54L4.27 0L8.54 8.54" stroke="#037b0b" fill="none"></path></pattern><clipPath id="SvgjsClipPath4981"><circle r="21.349999999999998" cx="396.01" cy="141.67"></circle></clipPath><pattern x="0" y="0" width="12.82" height="12.82" patternUnits="userSpaceOnUse" id="SvgjsPattern4984"><path d="M0 12.82L6.41 0L12.82 12.82" stroke="#037b0b" fill="none"></path></pattern><clipPath id="SvgjsClipPath4983"><circle r="32.05" cx="692.86" cy="18.07"></circle></clipPath><pattern x="0" y="0" width="8.62" height="8.62" patternUnits="userSpaceOnUse" id="SvgjsPattern4986"><path d="M4.31 1L4.31 7.619999999999999M1 4.31L7.619999999999999 4.31" stroke="#e73635" fill="none" stroke-width="1.7"></path></pattern><clipPath id="SvgjsClipPath4985"><circle r="25.86" cx="110.39" cy="2.36"></circle></clipPath><pattern x="0" y="0" width="72" height="6" patternUnits="userSpaceOnUse" id="SvgjsPattern4988"><rect width="72" height="3" x="0" y="0" fill="#037b0b"></rect><rect width="72" height="3" x="0" y="3" fill="rgba(0, 0, 0, 0)"></rect></pattern><clipPath id="SvgjsClipPath4987"><circle r="18" cx="391.89" cy="66.54"></circle></clipPath><pattern x="0" y="0" width="7.34" height="7.34" patternUnits="userSpaceOnUse" id="SvgjsPattern4990"><path d="M0 7.34L3.67 0L7.34 7.34" stroke="#d3b714" fill="none"></path></pattern><clipPath id="SvgjsClipPath4989"><circle r="22.02" cx="562.89" cy="119.1"></circle></clipPath></defs></svg>